<?xml version="1.0" encoding="utf-8" standalone="yes"?>
<!DOCTYPE svg PUBLIC "-//W3C//DTD SVG 1.1//EN" "http://www.w3.org/Graphics/SVG/1.1/DTD/svg11.dtd">
<!-- Generator: Adobe Illustrator 17.1.0, SVG Export Plug-In . SVG Version: 6.00 Build 0)  --><svg xmlns="http://www.w3.org/2000/svg" xmlns:xlink="http://www.w3.org/1999/xlink" version="1.1" id="Layer_1" x="0px" y="0px" viewBox="0 0 210 60" enable-background="new 0 0 210 60" xml:space="preserve" style="zoom: 1;"><g><g><polygon fill="#202A5A" points="105.404076,12.725067 82.504089,-0.57493 57.504089,13.425069 57.504089,41.425079 82.504089,55.425079 106.504082,41.425079 106.504082,13.425069 106.504082,12.225067 "></polygon><polygon fill="#2C448A" points="57.504089,13.425069 82.504089,27.425068 106.504082,13.425069 82.504089,-0.57493 "></polygon><polygon fill="#283A79" points="106.504082,12.225067 98.504082,16.425068 98.404076,18.225067 82.504089,27.425068 82.504089,55.425079 106.504082,41.425079 "></polygon><polygon fill="#202A5A" points="57.504089,13.425069 57.504089,41.425079 82.504089,55.425079 82.504089,27.425068 "></polygon><polygon fill="#3558A7" points="55.504089,41.425079 55.504089,32.425079 82.504089,48.425079 82.504089,57.425079 "></polygon><polygon fill="#3558A7" points="55.504089,13.425069 55.504089,18.425068 82.504089,34.425079 82.504089,29.425066 "></polygon><polygon fill="#416FB5" points="108.504082,41.425079 108.504082,36.425079 86.604088,26.925068 82.504089,29.425066 82.504089,34.325081 95.804085,40.225082 82.504089,48.425079 82.504089,57.425079 "></polygon><polygon fill="#477FC1" points="95.804085,40.225082 94.204094,39.625084 82.504089,46.425079 57.504089,32.425079 57.504089,31.225079 55.504089,32.425079 82.504089,48.425079 "></polygon><polygon fill="#477FC1" points="67.304092,15.425068 82.504089,6.42507 98.504082,16.425068 106.504082,12.225067 82.504089,-2.57493 55.504089,13.425069 82.504089,29.425066 86.604088,26.925068 "></polygon><polygon fill="#202A5A" points="98.404076,18.225067 98.504082,16.425068 82.504089,6.42507 67.304092,15.425068 69.004089,16.425068 82.504089,8.425069 "></polygon></g></g></svg>